# xmcd CD database file
#
# Track frame offsets:
#	150
#	18765
#	34564
#	37950
#	60365
#	75241
#	95349
#	98840
#	107303
#	111259
#	133620
#	146619
#	151043
#	161211
#	171428
#	217341
#	232543
#	234742
#	245637
#	246867
#
# Disc length: 3700 seconds
#
# Revision: 0
# Processed by: cddbd v1.5.1PL0 Copyright (c) Steve Scherf et al.
# Submitted via: CDex 1.51
#
DISCID=f50e7214
DTITLE=Blodsmak - Bäckbykyrkan, Västerås den 13/11 2004
DYEAR=2004
DGENRE=Blues
TTITLE0=Inledningstal, instruktioner, klockringning
TTITLE1=Blodsmak (Introitus)
TTITLE2=Inledingsord
TTITLE3=Nödrop (Herre förbarma dig)
TTITLE4=Text och skriftetal
TTITLE5=Bekännelsen
TTITLE6=Syndabekännelse
TTITLE7=Öppen dörr
TTITLE8=Förlåtelsen, tackbön
TTITLE9=Bäckby Torg (Tillredelsen)
TTITLE10=Prefation
TTITLE11=Prefation forts.
TTITLE12=Nattvardsbön
TTITLE13=Offra (O, Guds Lamm)
TTITLE14=Måltiden - Bluesjam
TTITLE15=Blodsmak
TTITLE16=Tackbön
TTITLE17=Tack
TTITLE18=Välsignelsen
TTITLE19=Lejonet av Juda (Sändning)
EXTD=YEAR: 2004
EXTT0=
EXTT1=
EXTT2=
EXTT3=
EXTT4=
EXTT5=
EXTT6=
EXTT7=
EXTT8=
EXTT9=
EXTT10=
EXTT11=
EXTT12=
EXTT13=
EXTT14=
EXTT15=
EXTT16=
EXTT17=
EXTT18=
EXTT19=
PLAYORDER=
